<svg width="17" height="16" viewBox="0 0 17 16" fill="none" xmlns="http://www.w3.org/2000/svg">
<path d="M11.9356 0.242188H5.06439C2.27187 0.242188 0 2.22966 0 4.67261V10.6837C0 13.1266 2.27187 15.1141 5.06439 15.1141H11.9356C14.7281 15.1141 17 13.1266 17 10.6837V4.67261C17 2.22966 14.7281 0.242188 11.9356 0.242188ZM15.2898 10.6837C15.2898 12.3042 13.7881 13.618 11.9356 13.618H5.06439C3.21194 13.618 1.7102 12.3042 1.7102 10.6837V4.67261C1.7102 3.05202 3.21194 1.7383 5.06439 1.7383H11.9356C13.7881 1.7383 15.2898 3.05202 15.2898 4.67261V10.6837Z" fill="url(#paint0_linear_563_295)"/>
<path d="M8.50032 3.83203C6.07592 3.83203 4.10352 5.55752 4.10352 7.67841C4.10352 9.79929 6.07592 11.5248 8.50032 11.5248C10.9247 11.5248 12.8971 9.79932 12.8971 7.67841C12.8971 5.5575 10.9247 3.83203 8.50032 3.83203ZM8.50032 10.0287C7.01654 10.0287 5.81372 8.97648 5.81372 7.67844C5.81372 6.38039 7.01657 5.32814 8.50032 5.32814C9.9841 5.32814 11.1869 6.38039 11.1869 7.67844C11.1869 8.97645 9.98407 10.0287 8.50032 10.0287Z" fill="url(#paint1_linear_563_295)"/>
<path d="M12.9051 4.78086C13.487 4.78086 13.9587 4.36821 13.9587 3.85918C13.9587 3.35015 13.487 2.9375 12.9051 2.9375C12.3233 2.9375 11.8516 3.35015 11.8516 3.85918C11.8516 4.36821 12.3233 4.78086 12.9051 4.78086Z" fill="url(#paint2_linear_563_295)"/>
<defs>
<linearGradient id="paint0_linear_563_295" x1="8.5" y1="15.0708" x2="8.5" y2="0.3577" gradientUnits="userSpaceOnUse">
<stop stop-color="#E09B3D"/>
<stop offset="0.3" stop-color="#C74C4D"/>
<stop offset="0.6" stop-color="#C21975"/>
<stop offset="1" stop-color="#7024C4"/>
</linearGradient>
<linearGradient id="paint1_linear_563_295" x1="8.50032" y1="15.0711" x2="8.50032" y2="0.357996" gradientUnits="userSpaceOnUse">
<stop stop-color="#E09B3D"/>
<stop offset="0.3" stop-color="#C74C4D"/>
<stop offset="0.6" stop-color="#C21975"/>
<stop offset="1" stop-color="#7024C4"/>
</linearGradient>
<linearGradient id="paint2_linear_563_295" x1="12.9051" y1="15.0694" x2="12.9051" y2="0.356264" gradientUnits="userSpaceOnUse">
<stop stop-color="white"/>
<stop offset="0.3" stop-color="white"/>
<stop offset="0.6" stop-color="white"/>
<stop offset="1" stop-color="#7024C4"/>
<stop offset="1" stop-color="white"/>
</linearGradient>
</defs>
</svg>
