<svg width="140" height="151" viewBox="0 0 140 151" fill="none" xmlns="http://www.w3.org/2000/svg">
<g filter="url(#filter0_d_563_232)">
<g filter="url(#filter1_d_563_232)">
<rect x="6" y="-16.0977" width="109.154" height="160.577" rx="5" transform="rotate(-11.0404 6 -16.0977)" fill="black"/>
<rect x="7.75949" y="-14.9127" width="106.154" height="157.577" rx="3.5" transform="rotate(-11.0404 7.75949 -14.9127)" stroke="black" stroke-width="3"/>
</g>
<ellipse cx="69.8148" cy="25.9777" rx="44.1814" ry="43.3302" transform="rotate(-11.0404 69.8148 25.9777)" fill="#FF0000"/>
<ellipse cx="74.2093" cy="48.5011" rx="44.1814" ry="43.3302" transform="rotate(-11.0404 74.2093 48.5011)" fill="#FF8212"/>
<ellipse cx="81.0423" cy="83.5323" rx="44.1814" ry="43.3302" transform="rotate(-11.0404 81.0423 83.5323)" fill="#3694B2"/>
<path d="M65.0345 25.071C65.2238 25.5087 68.8418 33.8709 69.5787 37.1751C70.7024 42.2132 68.4354 46.33 64.2214 48.5493L70.7607 71.2425C71.1323 72.549 80.3044 114.033 77.2615 116.88L70.5918 115.691C69.0797 115.949 58.6184 74.695 58.3991 73.3525L54.7074 50.1732C49.8378 49.5044 45.977 46.4235 44.8555 41.395C44.1164 38.0813 43.8779 29.1522 43.8653 28.6844C43.7823 26.6686 48.4225 25.8465 49.1757 27.8879L52.2093 41.4898C52.4259 41.7928 53.9447 41.5136 53.9753 41.1884C53.5862 38.7248 51.8565 27.6303 51.8117 27.378C51.7291 25.3122 56.2984 24.5322 57.0985 26.4756C57.1786 26.7319 60.3299 37.5738 61.028 39.9845C61.1961 40.2758 62.7345 40.0333 62.7939 39.6831L59.7603 26.0813C59.5832 23.9515 64.2452 23.1758 65.0345 25.071ZM84.3289 50.347L86.6502 68.4604C86.8185 69.8316 94.6638 111.583 96.209 111.319L105.028 109.814C107.677 109.361 98.4465 67.9769 98.1607 66.6957L88.1918 21.9983C87.9082 20.7268 86.4952 19.888 85.0273 20.1385C75.9217 21.6928 64.4261 41.5045 84.3289 50.347Z" fill="black"/>
</g>
<defs>
<filter id="filter0_d_563_232" x="0.864258" y="-38.1367" width="148.156" height="188.781" filterUnits="userSpaceOnUse" color-interpolation-filters="sRGB">
<feFlood flood-opacity="0" result="BackgroundImageFix"/>
<feColorMatrix in="SourceAlpha" type="matrix" values="0 0 0 0 0 0 0 0 0 0 0 0 0 0 0 0 0 0 127 0" result="hardAlpha"/>
<feOffset dy="4"/>
<feGaussianBlur stdDeviation="3"/>
<feComposite in2="hardAlpha" operator="out"/>
<feColorMatrix type="matrix" values="0 0 0 0 0 0 0 0 0 0 0 0 0 0 0 0 0 0 0.25 0"/>
<feBlend mode="normal" in2="BackgroundImageFix" result="effect1_dropShadow_563_232"/>
<feBlend mode="normal" in="SourceGraphic" in2="effect1_dropShadow_563_232" result="shape"/>
</filter>
<filter id="filter1_d_563_232" x="2.86426" y="-36.1367" width="144.156" height="184.781" filterUnits="userSpaceOnUse" color-interpolation-filters="sRGB">
<feFlood flood-opacity="0" result="BackgroundImageFix"/>
<feColorMatrix in="SourceAlpha" type="matrix" values="0 0 0 0 0 0 0 0 0 0 0 0 0 0 0 0 0 0 127 0" result="hardAlpha"/>
<feOffset dy="4"/>
<feGaussianBlur stdDeviation="2"/>
<feComposite in2="hardAlpha" operator="out"/>
<feColorMatrix type="matrix" values="0 0 0 0 0 0 0 0 0 0 0 0 0 0 0 0 0 0 0.25 0"/>
<feBlend mode="normal" in2="BackgroundImageFix" result="effect1_dropShadow_563_232"/>
<feBlend mode="normal" in="SourceGraphic" in2="effect1_dropShadow_563_232" result="shape"/>
</filter>
</defs>
</svg>
