<svg width="18" height="18" viewBox="0 0 18 18" fill="none" xmlns="http://www.w3.org/2000/svg">
<g clip-path="url(#clip0_563_250)">
<path d="M6.37501 0.375H11.625C11.8321 0.375 12 0.542906 12 0.750012V2.25002C12 2.45713 11.8321 2.62504 11.625 2.62504H6.37501C6.16791 2.62504 6 2.45713 6 2.25002V0.750012C6.00004 0.542906 6.16791 0.375 6.37501 0.375Z" fill="#CFD8DC"/>
<path d="M6.51829 0.403665C6.37819 0.345516 6.21686 0.377473 6.10952 0.484665L4.60951 1.98468C4.53923 2.05513 4.49982 2.15065 4.5 2.25018V3.75019C4.5 3.95729 4.66791 4.1252 4.87501 4.1252H6.37502C6.58213 4.1252 6.75004 3.95729 6.75004 3.75019V0.750165C6.75 0.598395 6.65852 0.461637 6.51829 0.403665Z" fill="#ECEFF1"/>
<path d="M13.3905 1.98518L11.8905 0.485167C11.7443 0.33853 11.5068 0.338249 11.3602 0.484499C11.2895 0.555022 11.2498 0.650823 11.25 0.750667V3.75066C11.25 3.95776 11.4179 4.12567 11.625 4.12567H13.125C13.3321 4.12567 13.5 3.95776 13.5 3.75066V2.25068C13.5002 2.15115 13.4608 2.05563 13.3905 1.98518Z" fill="#ECEFF1"/>
<path d="M17.625 3.375H0.375012C0.167906 3.375 0 3.54287 0 3.74998V16.5C0 17.1213 0.503684 17.625 1.125 17.625H16.875C17.4963 17.625 18 17.1213 18 16.5V3.74998C18 3.54287 17.8321 3.375 17.625 3.375Z" fill="#ECEFF1"/>
<path d="M10.0125 10.8831L5.6175 15.1956C5.38435 15.0169 5.24833 14.7394 5.25002 14.4456V7.32811C5.24836 7.03438 5.38435 6.75679 5.6175 6.57812L10.0125 10.8831Z" fill="#2196F3"/>
<path d="M13.5002 10.883C13.5002 11.2243 13.317 11.5393 13.0202 11.708L11.6402 12.473L10.0127 10.883L11.6402 9.29297L13.0202 10.0655C13.3151 10.2323 13.4982 10.5442 13.5002 10.883Z" fill="#FFC107"/>
<path d="M11.6397 12.4728L6.62969 15.2703C6.49093 15.3435 6.33655 15.3821 6.17969 15.3828C6.01565 15.3859 5.85421 15.3416 5.71468 15.2553C5.68117 15.237 5.64862 15.2169 5.61719 15.1953L10.0122 10.8828L11.6397 12.4728Z" fill="#F44336"/>
<path d="M11.6397 9.29314L10.0122 10.8831L5.61719 6.57813C5.64865 6.55647 5.68117 6.53643 5.71468 6.51811C5.99466 6.34845 6.34429 6.34272 6.62969 6.5031L11.6397 9.29314Z" fill="#4CAF50"/>
</g>
<defs>
<clipPath id="clip0_563_250">
<rect width="18" height="18" fill="white"/>
</clipPath>
</defs>
</svg>
